<?xml version="1.0" standalone="no"?><svg xmlns:xlink="http://www.w3.org/1999/xlink" xmlns="http://www.w3.org/2000/svg" viewBox="0 0 1000 545.4545454545455" preserveAspectRatio="xMaxYMax slice"><g transform="scale(1.2121212121212122)"><rect x="0" y="0" width="825" height="450" fill="#ffffff"/><rect x="0" y="0" width="75" height="75" fill="#ffffff"/><rect x="0" y="0" width="37.5" height="37.5" fill="#8ea1f0"/><path d="M 0 37.5 A 37.5 37.5 0 0 0 37.5 0 L 0 0" fill="#ff6187"/><rect x="37.5" y="0" width="37.5" height="37.5" fill="#c6d0f8"/><path d="M 37.5 0 A 37.5 37.5 0 0 0 75 37.5 L 75 0" fill="#bdc8f6"/><rect x="0" y="37.5" width="37.5" height="37.5" fill="#ff7e9d"/><path d="M 0 37.5 A 37.5 37.5 0 0 1 37.5 75 L 0 75" fill="#879bef"/><rect x="37.5" y="37.5" width="37.5" height="37.5" fill="#b0bdf5"/><path d="M 37.5 75 A 37.5 37.5 0 0 1  75 37.5 L 75 75" fill="#ffb3c5"/><rect x="75" y="0" width="75" height="75" fill="#e5e9fc"/><polygon points="75,0 150,0 75,75" fill="#ced6f9"/><rect x="150" y="0" width="75" height="75" fill="#3154e4"/><rect x="150" y="0" width="75" height="75" fill="#ff557d"/><rect x="225" y="0" width="75" height="75" fill="#fff0f3"/><rect x="225" y="0" width="75" height="75" fill="#ff537c"/><rect x="300" y="0" width="75" height="75" fill="#ffa5ba"/><polygon points="300,0 375,0 300,75" fill="#ffb3c5"/><rect x="375" y="0" width="75" height="75" fill="#ffffff"/><rect x="375" y="0" width="37.5" height="37.5" fill="#90a3f1"/><path d="M 375 37.5 A 37.5 37.5 0 0 1 412.5 0 L 412.5 9.375 A 28.125 28.125 0 0 0 384.375 37.5" fill="#d7defa"/><rect x="412.5" y="0" width="37.5" height="37.5" fill="#e2e7fb"/><path d="M 412.5 0 A 37.5 37.5 0 0 1 450 37.5 L 440.625 37.5 A 28.125 28.125 0 0 0 412.5 9.375" fill="#ff4672"/><rect x="375" y="37.5" width="37.5" height="37.5" fill="#7f95ee"/><path d="M 375 37.5 A 37.5 37.5 0 0 0 412.5 75 L 412.5 65.625 A 28.125 28.125 0 0 1 384.375 37.5" fill="#ff6d90"/><rect x="412.5" y="37.5" width="37.5" height="37.5" fill="#ffe8ee"/><path d="M 412.5 75 A 37.5 37.5 0 0 0 450 37.5 L 440.625 37.5 A 28.125 28.125 0 0 1 412.5 65.625" fill="#fffcfc"/><rect x="450" y="0" width="75" height="75" fill="#395be5"/><polygon points="525,0 525,75 450,75" fill="#ffe5eb"/><rect x="525" y="0" width="75" height="75" fill="#6982ec"/><polygon points="525,0 600,75 525,75" fill="#b5c1f5"/><rect x="600" y="0" width="75" height="75" fill="#ffffff"/><rect x="600" y="0" width="37.5" height="37.5" fill="#ffa4b9"/><path d="M 600 0 A 37.5 37.5 0 0 1 637.5 37.5 L 600 37.5" fill="#2c4fe4"/><rect x="637.5" y="0" width="37.5" height="37.5" fill="#ff547c"/><path d="M 637.5 37.5 A 37.5 37.5 0 0 1  675 0 L 675 37.5" fill="#3355e4"/><rect x="600" y="37.5" width="37.5" height="37.5" fill="#ffc5d3"/><path d="M 600 75 A 37.5 37.5 0 0 0 637.5 37.5 L 600 37.5" fill="#bac5f6"/><rect x="637.5" y="37.5" width="37.5" height="37.5" fill="#ffb1c4"/><path d="M 637.5 37.5 A 37.5 37.5 0 0 0 675 75 L 675 37.5" fill="#ffa4b9"/><rect x="675" y="0" width="75" height="75" fill="#ffffff"/><rect x="675" y="0" width="37.5" height="37.5" fill="#1d43e2"/><path d="M 675 37.5 A 37.5 37.5 0 0 1  712.5 0 L 712.5 37.5" fill="#ff7193"/><rect x="712.5" y="0" width="37.5" height="37.5" fill="#bcc7f6"/><path d="M 712.5 0 A 37.5 37.5 0 0 1 750 37.5 L 712.5 37.5" fill="#cad3f8"/><rect x="675" y="37.5" width="37.5" height="37.5" fill="#ff6186"/><path d="M 675 37.5 A 37.5 37.5 0 0 0 712.5 75 L 712.5 37.5" fill="#cbd4f8"/><rect x="712.5" y="37.5" width="37.5" height="37.5" fill="#ffb4c6"/><path d="M 712.5 75 A 37.5 37.5 0 0 0 750 37.5 L 712.5 37.5" fill="#ffa7bc"/><rect x="750" y="0" width="75" height="75" fill="#ffffff"/><rect x="750" y="0" width="37.5" height="37.5" fill="#ff7395"/><polygon points="787.5,0 787.5,37.5 750,37.5" fill="#ffd5df"/><rect x="787.5" y="0" width="37.5" height="37.5" fill="#fff3f6"/><polygon points="787.5,0 825,37.5 787.5,37.5" fill="#6f87ec"/><rect x="750" y="37.5" width="37.5" height="37.5" fill="#ff6086"/><polygon points="750,37.5 787.5,37.5 787.5,75" fill="#8da0f0"/><rect x="787.5" y="37.5" width="37.5" height="37.5" fill="#ff3968"/><polygon points="787.5,37.5 825,37.5 787.5,75" fill="#ffa0b6"/><rect x="0" y="75" width="75" height="75" fill="#ffffff"/><rect x="0" y="75" width="37.5" height="37.5" fill="#3b5ce6"/><polygon points="37.5,75 37.5,112.5 0,112.5" fill="#ffbccc"/><rect x="37.5" y="75" width="37.5" height="37.5" fill="#4262e6"/><polygon points="37.5,75 75,112.5 37.5,112.5" fill="#ffd5df"/><rect x="0" y="112.5" width="37.5" height="37.5" fill="#8a9ef0"/><polygon points="0,112.5 37.5,112.5 37.5,150" fill="#526fe9"/><rect x="37.5" y="112.5" width="37.5" height="37.5" fill="#f0f3fd"/><polygon points="37.5,112.5 75,112.5 37.5,150" fill="#607bea"/><rect x="75" y="75" width="75" height="75" fill="#ffffff"/><rect x="75" y="75" width="37.5" height="37.5" fill="#294de3"/><polygon points="112.5,75 112.5,112.5 75,112.5" fill="#fff7f9"/><rect x="112.5" y="75" width="37.5" height="37.5" fill="#ff6e90"/><polygon points="112.5,75 150,75 112.5,112.5" fill="#ff8aa6"/><rect x="75" y="112.5" width="37.5" height="37.5" fill="#ff9ab2"/><polygon points="75,112.5 112.5,112.5 112.5,150" fill="#ff557e"/><rect x="112.5" y="112.5" width="37.5" height="37.5" fill="#acbaf4"/><polygon points="112.5,112.5 150,150 112.5,150" fill="#ffb4c6"/><rect x="150" y="75" width="75" height="75" fill="#ffffff"/><rect x="150" y="75" width="37.5" height="37.5" fill="#7a91ee"/><circle cx="168.75" cy="93.75" r="18.75" fill="#e3e8fb"/><rect x="187.5" y="75" width="37.5" height="37.5" fill="#fff0f3"/><rect x="187.5" y="75" width="37.5" height="37.5" fill="#ff4571"/><rect x="150" y="112.5" width="37.5" height="37.5" fill="#ffa2b8"/><circle cx="168.75" cy="131.25" r="18.75" fill="#ffc9d6"/><rect x="187.5" y="112.5" width="37.5" height="37.5" fill="#ffa3b9"/><rect x="187.5" y="112.5" width="37.5" height="37.5" fill="#ffc8d5"/><rect x="225" y="75" width="75" height="75" fill="#ffffff"/><rect x="225" y="75" width="37.5" height="37.5" fill="#ffb3c5"/><path d="M 225 112.5 A 37.5 37.5 0 0 0 262.5 75 L 225 75" fill="#5975e9"/><rect x="262.5" y="75" width="37.5" height="37.5" fill="#dfe4fb"/><path d="M 262.5 75 A 37.5 37.5 0 0 0 300 112.5 L 300 75" fill="#5471e9"/><rect x="225" y="112.5" width="37.5" height="37.5" fill="#ffb6c8"/><path d="M 225 112.5 A 37.5 37.5 0 0 1 262.5 150 L 225 150" fill="#ff4975"/><rect x="262.5" y="112.5" width="37.5" height="37.5" fill="#e9ecfc"/><path d="M 262.5 150 A 37.5 37.5 0 0 1  300 112.5 L 300 150" fill="#ffffff"/><rect x="300" y="75" width="75" height="75" fill="#ffffff"/><rect x="300" y="75" width="37.5" height="37.5" fill="#ff547d"/><circle cx="318.75" cy="93.75" r="18.75" fill="#ffecf1"/><rect x="337.5" y="75" width="37.5" height="37.5" fill="#ffb0c3"/><rect x="337.5" y="75" width="37.5" height="37.5" fill="#6881eb"/><rect x="300" y="112.5" width="37.5" height="37.5" fill="#f1f4fd"/><circle cx="318.75" cy="131.25" r="18.75" fill="#1f45e2"/><rect x="337.5" y="112.5" width="37.5" height="37.5" fill="#97a9f2"/><rect x="337.5" y="112.5" width="37.5" height="37.5" fill="#ffcfdb"/><rect x="375" y="75" width="75" height="75" fill="#5a76ea"/><path d="M 375 75 A 75 75 0 0 1 450 150 L 375 150" fill="#ffdfe7"/><rect x="450" y="75" width="75" height="75" fill="#5572e9"/><polygon points="450,75 525,75 450,150" fill="#ffeff3"/><rect x="525" y="75" width="75" height="75" fill="#ffffff"/><rect x="525" y="75" width="37.5" height="37.5" fill="#aab8f4"/><path d="M 525 75 A 37.5 37.5 0 0 0 562.5 112.5 L 562.5 75" fill="#ffc1d0"/><rect x="562.5" y="75" width="37.5" height="37.5" fill="#adbbf4"/><path d="M 562.5 112.5 A 37.5 37.5 0 0 0 600 75 L 562.5 75" fill="#ff7495"/><rect x="525" y="112.5" width="37.5" height="37.5" fill="#ffcdd9"/><path d="M 525 150 A 37.5 37.5 0 0 1  562.5 112.5 L 562.5 150" fill="#9bacf2"/><rect x="562.5" y="112.5" width="37.5" height="37.5" fill="#ffd3dd"/><path d="M 562.5 112.5 A 37.5 37.5 0 0 1 600 150 L 562.5 150" fill="#ff4c77"/><rect x="600" y="75" width="75" height="75" fill="#ff5b82"/><polygon points="600,75 675,75 600,150" fill="#ffffff"/><rect x="675" y="75" width="75" height="75" fill="#ffffff"/><rect x="675" y="75" width="37.5" height="37.5" fill="#adbaf4"/><polygon points="712.5,75 712.5,112.5 675,112.5" fill="#ff5980"/><rect x="712.5" y="75" width="37.5" height="37.5" fill="#3154e4"/><polygon points="712.5,75 750,112.5 712.5,112.5" fill="#3759e5"/><rect x="675" y="112.5" width="37.5" height="37.5" fill="#ff4d77"/><polygon points="675,112.5 712.5,112.5 712.5,150" fill="#4a68e7"/><rect x="712.5" y="112.5" width="37.5" height="37.5" fill="#ff698c"/><polygon points="712.5,112.5 750,112.5 712.5,150" fill="#1b42e1"/><rect x="750" y="75" width="75" height="75" fill="#ffffff"/><rect x="750" y="75" width="37.5" height="37.5" fill="#758ced"/><polygon points="787.5,75 787.5,112.5 750,112.5" fill="#ff8aa6"/><rect x="787.5" y="75" width="37.5" height="37.5" fill="#ffeaef"/><polygon points="787.5,75 825,75 787.5,112.5" fill="#ff7e9d"/><rect x="750" y="112.5" width="37.5" height="37.5" fill="#657feb"/><polygon points="750,112.5 787.5,112.5 787.5,150" fill="#ff9db4"/><rect x="787.5" y="112.5" width="37.5" height="37.5" fill="#ff577f"/><polygon points="787.5,112.5 825,150 787.5,150" fill="#7189ed"/><rect x="0" y="150" width="75" height="75" fill="#ffffff"/><rect x="0" y="150" width="37.5" height="37.5" fill="#3d5ee6"/><polygon points="37.5,150 37.5,187.5 0,187.5" fill="#ebeefc"/><rect x="37.5" y="150" width="37.5" height="37.5" fill="#c2ccf7"/><polygon points="37.5,150 75,187.5 37.5,187.5" fill="#1940e1"/><rect x="0" y="187.5" width="37.5" height="37.5" fill="#ff88a4"/><polygon points="0,187.5 37.5,187.5 0,225" fill="#6680eb"/><rect x="37.5" y="187.5" width="37.5" height="37.5" fill="#ffb7c8"/><polygon points="37.5,187.5 75,187.5 75,225" fill="#8ca0f0"/><rect x="75" y="150" width="75" height="75" fill="#ff557d"/><path d="M 75 150 A 75 75 0 0 0 150 225 L 150 150" fill="#ff97b0"/><rect x="150" y="150" width="75" height="75" fill="#ffffff"/><rect x="150" y="150" width="37.5" height="37.5" fill="#264be3"/><circle cx="168.75" cy="168.75" r="18.75" fill="#ff6388"/><rect x="187.5" y="150" width="37.5" height="37.5" fill="#c9d2f8"/><rect x="187.5" y="150" width="37.5" height="37.5" fill="#ffa3b9"/><rect x="150" y="187.5" width="37.5" height="37.5" fill="#ff7495"/><circle cx="168.75" cy="206.25" r="18.75" fill="#3154e4"/><rect x="187.5" y="187.5" width="37.5" height="37.5" fill="#ff7e9c"/><rect x="187.5" y="187.5" width="37.5" height="37.5" fill="#ffafc2"/><rect x="225" y="150" width="75" height="75" fill="#788fed"/><path d="M 225 225 A 75 75 0 0 1  300 150 L 300 225" fill="#3255e4"/><rect x="300" y="150" width="75" height="75" fill="#8297ef"/><path d="M 300 225 A 75 75 0 0 0 375 150 L 300 150" fill="#d6ddfa"/><rect x="375" y="150" width="75" height="75" fill="#ffffff"/><rect x="375" y="150" width="37.5" height="37.5" fill="#ff4974"/><polygon points="412.5,150 412.5,187.5 375,187.5" fill="#ff7a9a"/><rect x="412.5" y="150" width="37.5" height="37.5" fill="#ffe5eb"/><polygon points="412.5,150 450,187.5 412.5,187.5" fill="#bec9f7"/><rect x="375" y="187.5" width="37.5" height="37.5" fill="#ff7b9b"/><polygon points="375,187.5 412.5,187.5 375,225" fill="#3f5fe6"/><rect x="412.5" y="187.5" width="37.5" height="37.5" fill="#ff557d"/><polygon points="412.5,187.5 450,187.5 450,225" fill="#647feb"/><rect x="450" y="150" width="75" height="75" fill="#ffffff"/><rect x="450" y="150" width="37.5" height="37.5" fill="#3557e5"/><path d="M 450 150 A 37.5 37.5 0 0 0 487.5 187.5 L 487.5 150" fill="#ff5d83"/><rect x="487.5" y="150" width="37.5" height="37.5" fill="#fffcfd"/><path d="M 487.5 187.5 A 37.5 37.5 0 0 0 525 150 L 487.5 150" fill="#ff82a0"/><rect x="450" y="187.5" width="37.5" height="37.5" fill="#ff9eb5"/><path d="M 450 225 A 37.5 37.5 0 0 1  487.5 187.5 L 487.5 225" fill="#657feb"/><rect x="487.5" y="187.5" width="37.5" height="37.5" fill="#e0e5fb"/><path d="M 487.5 187.5 A 37.5 37.5 0 0 1 525 225 L 487.5 225" fill="#4060e6"/><rect x="525" y="150" width="75" height="75" fill="#e2e7fb"/><rect x="525" y="150" width="75" height="75" fill="#a1b0f3"/><rect x="600" y="150" width="75" height="75" fill="#3154e4"/><path d="M 600 225 A 75 75 0 0 0 675 150 L 600 150" fill="#8c9ff0"/><rect x="675" y="150" width="75" height="75" fill="#ffffff"/><rect x="675" y="150" width="37.5" height="37.5" fill="#dce2fa"/><circle cx="693.75" cy="168.75" r="18.75" fill="#cbd4f8"/><rect x="712.5" y="150" width="37.5" height="37.5" fill="#4c6be8"/><rect x="712.5" y="150" width="37.5" height="37.5" fill="#5773e9"/><rect x="675" y="187.5" width="37.5" height="37.5" fill="#ff90ab"/><circle cx="693.75" cy="206.25" r="18.75" fill="#c1cbf7"/><rect x="712.5" y="187.5" width="37.5" height="37.5" fill="#fffafb"/><rect x="712.5" y="187.5" width="37.5" height="37.5" fill="#fff1f5"/><rect x="750" y="150" width="75" height="75" fill="#ffffff"/><rect x="750" y="150" width="37.5" height="37.5" fill="#ffecf0"/><polygon points="787.5,150 787.5,187.5 750,187.5" fill="#ff4370"/><rect x="787.5" y="150" width="37.5" height="37.5" fill="#bfcaf7"/><polygon points="787.5,150 825,187.5 787.5,187.5" fill="#3355e4"/><rect x="750" y="187.5" width="37.5" height="37.5" fill="#ff6187"/><polygon points="750,187.5 787.5,187.5 787.5,225" fill="#ffc2d1"/><rect x="787.5" y="187.5" width="37.5" height="37.5" fill="#ffedf1"/><polygon points="787.5,187.5 825,187.5 787.5,225" fill="#b3c0f5"/><rect x="0" y="225" width="75" height="75" fill="#ffffff"/><rect x="0" y="225" width="37.5" height="37.5" fill="#ff678b"/><path d="M 0 225 A 37.5 37.5 0 0 1 37.5 262.5 L 0 262.5" fill="#afbdf5"/><rect x="37.5" y="225" width="37.5" height="37.5" fill="#3b5ce6"/><path d="M 37.5 262.5 A 37.5 37.5 0 0 1  75 225 L 75 262.5" fill="#ffffff"/><rect x="0" y="262.5" width="37.5" height="37.5" fill="#f0f3fd"/><path d="M 0 300 A 37.5 37.5 0 0 0 37.5 262.5 L 0 262.5" fill="#dde3fb"/><rect x="37.5" y="262.5" width="37.5" height="37.5" fill="#ff587f"/><path d="M 37.5 262.5 A 37.5 37.5 0 0 0 75 300 L 75 262.5" fill="#ff7395"/><rect x="75" y="225" width="75" height="75" fill="#fff1f4"/><path d="M 75 225 A 75 75 0 0 0 150 300 L 150 225" fill="#ff7c9b"/><rect x="150" y="225" width="75" height="75" fill="#ffe6ec"/><rect x="150" y="225" width="75" height="75" fill="#ff5b82"/><rect x="225" y="225" width="75" height="75" fill="#ffffff"/><rect x="225" y="225" width="37.5" height="37.5" fill="#ffd8e1"/><path d="M 225 262.5 A 37.5 37.5 0 0 1 262.5 225 L 262.5 234.375 A 28.125 28.125 0 0 0 234.375 262.5" fill="#ff7697"/><rect x="262.5" y="225" width="37.5" height="37.5" fill="#fffeff"/><path d="M 262.5 225 A 37.5 37.5 0 0 1 300 262.5 L 290.625 262.5 A 28.125 28.125 0 0 0 262.5 234.375" fill="#8fa2f0"/><rect x="225" y="262.5" width="37.5" height="37.5" fill="#c7d0f8"/><path d="M 225 262.5 A 37.5 37.5 0 0 0 262.5 300 L 262.5 290.625 A 28.125 28.125 0 0 1 234.375 262.5" fill="#b5c2f5"/><rect x="262.5" y="262.5" width="37.5" height="37.5" fill="#ffb7c8"/><path d="M 262.5 300 A 37.5 37.5 0 0 0 300 262.5 L 290.625 262.5 A 28.125 28.125 0 0 1 262.5 290.625" fill="#869aef"/><rect x="300" y="225" width="75" height="75" fill="#ffffff"/><rect x="300" y="225" width="37.5" height="37.5" fill="#ffe4eb"/><polygon points="337.5,225 337.5,262.5 300,262.5" fill="#bac6f6"/><rect x="337.5" y="225" width="37.5" height="37.5" fill="#ffb9ca"/><polygon points="337.5,225 375,262.5 337.5,262.5" fill="#e9edfc"/><rect x="300" y="262.5" width="37.5" height="37.5" fill="#cbd4f8"/><polygon points="300,262.5 337.5,262.5 337.5,300" fill="#ff87a3"/><rect x="337.5" y="262.5" width="37.5" height="37.5" fill="#2045e2"/><polygon points="337.5,262.5 375,262.5 337.5,300" fill="#ff6d90"/><rect x="375" y="225" width="75" height="75" fill="#ffffff"/><rect x="375" y="225" width="37.5" height="37.5" fill="#fff8f9"/><polygon points="412.5,225 412.5,262.5 375,262.5" fill="#ffdce5"/><rect x="412.5" y="225" width="37.5" height="37.5" fill="#8b9ff0"/><polygon points="412.5,225 450,262.5 412.5,262.5" fill="#fff0f4"/><rect x="375" y="262.5" width="37.5" height="37.5" fill="#3759e5"/><polygon points="375,262.5 412.5,262.5 412.5,300" fill="#f6f7fe"/><rect x="412.5" y="262.5" width="37.5" height="37.5" fill="#ff93ad"/><polygon points="412.5,262.5 450,262.5 412.5,300" fill="#ff5079"/><rect x="450" y="225" width="75" height="75" fill="#ffffff"/><rect x="450" y="225" width="37.5" height="37.5" fill="#ffcad7"/><polygon points="487.5,225 487.5,262.5 450,262.5" fill="#ff8ea9"/><rect x="487.5" y="225" width="37.5" height="37.5" fill="#254ae3"/><polygon points="487.5,225 525,225 487.5,262.5" fill="#98a9f2"/><rect x="450" y="262.5" width="37.5" height="37.5" fill="#bdc8f6"/><polygon points="450,262.5 487.5,262.5 487.5,300" fill="#2d51e4"/><rect x="487.5" y="262.5" width="37.5" height="37.5" fill="#b9c5f6"/><polygon points="487.5,262.5 525,300 487.5,300" fill="#9bacf2"/><rect x="525" y="225" width="75" height="75" fill="#a4b3f3"/><rect x="525" y="225" width="75" height="75" fill="#ffcad7"/><rect x="600" y="225" width="75" height="75" fill="#617bea"/><path d="M 600 300 A 75 75 0 0 0 675 225 L 600 225" fill="#a2b1f3"/><rect x="675" y="225" width="75" height="75" fill="#ffffff"/><rect x="675" y="225" width="37.5" height="37.5" fill="#98a9f2"/><path d="M 675 262.5 A 37.5 37.5 0 0 0 712.5 225 L 675 225" fill="#1a41e1"/><rect x="712.5" y="225" width="37.5" height="37.5" fill="#4b69e8"/><path d="M 712.5 225 A 37.5 37.5 0 0 0 750 262.5 L 750 225" fill="#fffafb"/><rect x="675" y="262.5" width="37.5" height="37.5" fill="#f1f4fd"/><path d="M 675 262.5 A 37.5 37.5 0 0 1 712.5 300 L 675 300" fill="#ffb0c3"/><rect x="712.5" y="262.5" width="37.5" height="37.5" fill="#eff1fd"/><path d="M 712.5 300 A 37.5 37.5 0 0 1  750 262.5 L 750 300" fill="#ff4370"/><rect x="750" y="225" width="75" height="75" fill="#fff2f5"/><path d="M 750 300 A 75 75 0 0 0 825 225 L 750 225" fill="#b9c5f6"/><rect x="0" y="300" width="75" height="75" fill="#4464e7"/><path d="M 0 300 A 75 75 0 0 1  75 375 L 0 300 A 75 75 0 0 0 75 375" fill="#ff7797"/><rect x="75" y="300" width="75" height="75" fill="#ffb2c4"/><path d="M 75 375 A 75 75 0 0 0 150 300 L 75 300" fill="#ff93ad"/><rect x="150" y="300" width="75" height="75" fill="#ff86a3"/><path d="M 150 300 A 75 75 0 0 1  225 375 L 150 300 A 75 75 0 0 0 225 375" fill="#ff8faa"/><rect x="225" y="300" width="75" height="75" fill="#ff4974"/><path d="M 225 300 A 75 75 0 0 1  300 375 L 225 300 A 75 75 0 0 0 300 375" fill="#ff8ca8"/><rect x="300" y="300" width="75" height="75" fill="#274be3"/><rect x="300" y="300" width="75" height="75" fill="#ff5b82"/><rect x="375" y="300" width="75" height="75" fill="#ffffff"/><rect x="375" y="300" width="37.5" height="37.5" fill="#ff7092"/><path d="M 375 337.5 A 37.5 37.5 0 0 0 412.5 300 L 375 300" fill="#5370e9"/><rect x="412.5" y="300" width="37.5" height="37.5" fill="#fffbfc"/><path d="M 412.5 300 A 37.5 37.5 0 0 0 450 337.5 L 450 300" fill="#a7b6f4"/><rect x="375" y="337.5" width="37.5" height="37.5" fill="#8196ef"/><path d="M 375 337.5 A 37.5 37.5 0 0 1 412.5 375 L 375 375" fill="#284ce3"/><rect x="412.5" y="337.5" width="37.5" height="37.5" fill="#6e86ec"/><path d="M 412.5 375 A 37.5 37.5 0 0 1  450 337.5 L 450 375" fill="#ffd8e1"/><rect x="450" y="300" width="75" height="75" fill="#ffffff"/><rect x="450" y="300" width="37.5" height="37.5" fill="#8fa2f0"/><circle cx="468.75" cy="318.75" r="18.75" fill="#f3f5fd"/><rect x="487.5" y="300" width="37.5" height="37.5" fill="#1c42e2"/><rect x="487.5" y="300" width="37.5" height="37.5" fill="#93a5f1"/><rect x="450" y="337.5" width="37.5" height="37.5" fill="#ffc1d0"/><circle cx="468.75" cy="356.25" r="18.75" fill="#ffb8c9"/><rect x="487.5" y="337.5" width="37.5" height="37.5" fill="#f3f5fd"/><rect x="487.5" y="337.5" width="37.5" height="37.5" fill="#ff5d84"/><rect x="525" y="300" width="75" height="75" fill="#4c6ae8"/><path d="M 525 300 A 75 75 0 0 1 600 375 L 525 375" fill="#a8b6f4"/><rect x="600" y="300" width="75" height="75" fill="#ffffff"/><rect x="600" y="300" width="37.5" height="37.5" fill="#ff5f85"/><path d="M 600 300 A 37.5 37.5 0 0 0 637.5 337.5 L 637.5 300" fill="#ffa3b9"/><rect x="637.5" y="300" width="37.5" height="37.5" fill="#ffd3dd"/><path d="M 637.5 337.5 A 37.5 37.5 0 0 0 675 300 L 637.5 300" fill="#6d86ec"/><rect x="600" y="337.5" width="37.5" height="37.5" fill="#9aabf2"/><path d="M 600 375 A 37.5 37.5 0 0 1  637.5 337.5 L 637.5 375" fill="#a3b3f3"/><rect x="637.5" y="337.5" width="37.5" height="37.5" fill="#ff7797"/><path d="M 637.5 337.5 A 37.5 37.5 0 0 1 675 375 L 637.5 375" fill="#d0d8f9"/><rect x="675" y="300" width="75" height="75" fill="#ffffff"/><rect x="675" y="300" width="37.5" height="37.5" fill="#3355e4"/><path d="M 675 300 A 37.5 37.5 0 0 1 712.5 337.5 L 675 337.5" fill="#ff5e84"/><rect x="712.5" y="300" width="37.5" height="37.5" fill="#a0b0f3"/><path d="M 712.5 337.5 A 37.5 37.5 0 0 1  750 300 L 750 337.5" fill="#ff93ad"/><rect x="675" y="337.5" width="37.5" height="37.5" fill="#bcc8f6"/><path d="M 675 375 A 37.5 37.5 0 0 0 712.5 337.5 L 675 337.5" fill="#274ce3"/><rect x="712.5" y="337.5" width="37.5" height="37.5" fill="#4262e6"/><path d="M 712.5 337.5 A 37.5 37.5 0 0 0 750 375 L 750 337.5" fill="#f7f8fe"/><rect x="750" y="300" width="75" height="75" fill="#ffffff"/><rect x="750" y="300" width="37.5" height="37.5" fill="#3053e4"/><path d="M 750 300 A 37.5 37.5 0 0 1 787.5 337.5 L 750 337.5" fill="#ffaabe"/><rect x="787.5" y="300" width="37.5" height="37.5" fill="#3356e5"/><path d="M 787.5 337.5 A 37.5 37.5 0 0 1  825 300 L 825 337.5" fill="#ffceda"/><rect x="750" y="337.5" width="37.5" height="37.5" fill="#8398ef"/><path d="M 750 375 A 37.5 37.5 0 0 0 787.5 337.5 L 750 337.5" fill="#d4dbf9"/><rect x="787.5" y="337.5" width="37.5" height="37.5" fill="#ffd8e1"/><path d="M 787.5 337.5 A 37.5 37.5 0 0 0 825 375 L 825 337.5" fill="#4262e6"/><rect x="0" y="375" width="75" height="75" fill="#ffffff"/><rect x="0" y="375" width="37.5" height="37.5" fill="#e3e8fb"/><circle cx="18.75" cy="393.75" r="18.75" fill="#ff6e91"/><rect x="37.5" y="375" width="37.5" height="37.5" fill="#d8defa"/><rect x="37.5" y="375" width="37.5" height="37.5" fill="#ffb8c9"/><rect x="0" y="412.5" width="37.5" height="37.5" fill="#ff5b82"/><circle cx="18.75" cy="431.25" r="18.75" fill="#a3b3f3"/><rect x="37.5" y="412.5" width="37.5" height="37.5" fill="#ff527b"/><rect x="37.5" y="412.5" width="37.5" height="37.5" fill="#ff829f"/><rect x="75" y="375" width="75" height="75" fill="#e1e6fb"/><rect x="75" y="375" width="75" height="75" fill="#95a7f1"/><rect x="150" y="375" width="75" height="75" fill="#ff3d6b"/><polygon points="150,375 225,375 150,450" fill="#2e51e4"/><rect x="225" y="375" width="75" height="75" fill="#ffffff"/><rect x="225" y="375" width="37.5" height="37.5" fill="#95a7f1"/><polygon points="262.5,375 262.5,412.5 225,412.5" fill="#ffc4d2"/><rect x="262.5" y="375" width="37.5" height="37.5" fill="#fbfbfe"/><polygon points="262.5,375 300,412.5 262.5,412.5" fill="#ff4470"/><rect x="225" y="412.5" width="37.5" height="37.5" fill="#a0b0f3"/><polygon points="225,412.5 262.5,412.5 225,450" fill="#6781eb"/><rect x="262.5" y="412.5" width="37.5" height="37.5" fill="#feffff"/><polygon points="262.5,412.5 300,412.5 300,450" fill="#879cef"/><rect x="300" y="375" width="75" height="75" fill="#9daef2"/><rect x="300" y="375" width="75" height="75" fill="#3d5ee6"/><rect x="375" y="375" width="75" height="75" fill="#ff6a8d"/><rect x="375" y="375" width="75" height="75" fill="#b1bef5"/><rect x="450" y="375" width="75" height="75" fill="#ffffff"/><rect x="450" y="375" width="37.5" height="37.5" fill="#3f60e6"/><path d="M 450 375 A 37.5 37.5 0 0 1 487.5 412.5 L 450 412.5" fill="#eaeefc"/><rect x="487.5" y="375" width="37.5" height="37.5" fill="#e2e7fb"/><path d="M 487.5 412.5 A 37.5 37.5 0 0 1  525 375 L 525 412.5" fill="#ffe7ed"/><rect x="450" y="412.5" width="37.5" height="37.5" fill="#5f7aea"/><path d="M 450 450 A 37.5 37.5 0 0 0 487.5 412.5 L 450 412.5" fill="#d0d8f9"/><rect x="487.5" y="412.5" width="37.5" height="37.5" fill="#ffeaef"/><path d="M 487.5 412.5 A 37.5 37.5 0 0 0 525 450 L 525 412.5" fill="#dbe1fa"/><rect x="525" y="375" width="75" height="75" fill="#ff6489"/><polygon points="525,375 600,450 525,450" fill="#2449e3"/><rect x="600" y="375" width="75" height="75" fill="#ffffff"/><rect x="600" y="375" width="37.5" height="37.5" fill="#ffa0b7"/><path d="M 600 412.5 A 37.5 37.5 0 0 0 637.5 375 L 600 375" fill="#97a8f1"/><rect x="637.5" y="375" width="37.5" height="37.5" fill="#ffd5df"/><path d="M 637.5 375 A 37.5 37.5 0 0 0 675 412.5 L 675 375" fill="#274ce3"/><rect x="600" y="412.5" width="37.5" height="37.5" fill="#ff6488"/><path d="M 600 412.5 A 37.5 37.5 0 0 1 637.5 450 L 600 450" fill="#1d43e2"/><rect x="637.5" y="412.5" width="37.5" height="37.5" fill="#ff4974"/><path d="M 637.5 450 A 37.5 37.5 0 0 1  675 412.5 L 675 450" fill="#c1ccf7"/><rect x="675" y="375" width="75" height="75" fill="#ffffff"/><rect x="675" y="375" width="37.5" height="37.5" fill="#7e94ee"/><circle cx="693.75" cy="393.75" r="18.75" fill="#ff9bb3"/><rect x="712.5" y="375" width="37.5" height="37.5" fill="#b3c0f5"/><rect x="712.5" y="375" width="37.5" height="37.5" fill="#ff4f79"/><rect x="675" y="412.5" width="37.5" height="37.5" fill="#ffebf0"/><circle cx="693.75" cy="431.25" r="18.75" fill="#fefeff"/><rect x="712.5" y="412.5" width="37.5" height="37.5" fill="#395be5"/><rect x="712.5" y="412.5" width="37.5" height="37.5" fill="#ffb1c3"/><rect x="750" y="375" width="75" height="75" fill="#4b6ae8"/><polygon points="750,375 825,450 750,450" fill="#ff436f"/></g></svg>