<svg width="40" height="40" viewBox="0 0 40 40" fill="none" xmlns="http://www.w3.org/2000/svg">
<path fill-rule="evenodd" clip-rule="evenodd" d="M20.3002 10.0795H12.4599V7.69853H20.3002L19.1578 6.5562C18.6929 6.09129 18.6929 5.33752 19.1578 4.87261C19.6227 4.4077 20.3765 4.4077 20.8414 4.87261L24.016 8.04721C24.4809 8.51212 24.4809 9.26589 24.016 9.7308L20.8414 12.9054C20.3765 13.3703 19.6227 13.3703 19.1578 12.9054C18.6929 12.4405 18.6929 11.6867 19.1578 11.2218L20.3002 10.0795ZM33.4435 19.1583L32.3012 20.3007V12.4604H29.9203V20.3007L28.7779 19.1583C28.313 18.6934 27.5593 18.6934 27.0943 19.1583C26.6294 19.6232 26.6294 20.377 27.0943 20.8419L30.2689 24.0165C30.5014 24.249 30.8061 24.3652 31.1107 24.3652C31.4154 24.3652 31.7201 24.249 31.9525 24.0165L35.1271 20.8419C35.592 20.377 35.592 19.6232 35.1271 19.1583C34.6622 18.6934 33.9085 18.6934 33.4435 19.1583ZM20.8414 33.444L19.6991 32.3017H27.5393V29.9207H19.6991L20.8414 28.7784C21.3063 28.3135 21.3063 27.5597 20.8414 27.0948C20.3765 26.6299 19.6227 26.6299 19.1578 27.0948L15.9832 30.2694C15.5183 30.7343 15.5183 31.4881 15.9832 31.953L19.1578 35.1276C19.6227 35.5925 20.3765 35.5925 20.8414 35.1276C21.3063 34.6627 21.3063 33.9089 20.8414 33.444ZM6.55571 20.8419L7.69804 19.6996V27.5398H10.079V19.6996L11.2213 20.8419C11.6862 21.3068 12.44 21.3068 12.9049 20.8419C13.3698 20.377 13.3698 19.6232 12.9049 19.1583L9.73031 15.9837C9.2654 15.5188 8.51163 15.5188 8.04672 15.9837L4.87212 19.1583C4.40721 19.6232 4.40721 20.377 4.87212 20.8419C5.33703 21.3068 6.0908 21.3068 6.55571 20.8419Z" fill="#97D700" fill-opacity="0.5"/>
<path fill-rule="evenodd" clip-rule="evenodd" d="M14.4451 12.0634V5.7142C14.4451 4.39924 13.3791 3.33325 12.0641 3.33325H5.71494C4.39997 3.33325 3.33398 4.39924 3.33398 5.7142V12.0634C3.33398 13.3784 4.39997 14.4444 5.71494 14.4444H12.0641C13.3791 14.4444 14.4451 13.3784 14.4451 12.0634ZM12.0641 25.5555H5.71494C4.39997 25.5555 3.33398 26.6215 3.33398 27.9364V34.2856C3.33398 35.6006 4.39997 36.6666 5.71494 36.6666H12.0641C13.3791 36.6666 14.4451 35.6006 14.4451 34.2856V27.9364C14.4451 26.6215 13.3791 25.5555 12.0641 25.5555ZM34.2864 14.4444H27.9372C26.6222 14.4444 25.5562 13.3784 25.5562 12.0634V5.7142C25.5562 4.39924 26.6222 3.33325 27.9372 3.33325H34.2864C35.6013 3.33325 36.6673 4.39924 36.6673 5.7142V12.0634C36.6673 13.3784 35.6013 14.4444 34.2864 14.4444ZM25.5562 27.9364V34.2856C25.5562 35.6006 26.6222 36.6666 27.9372 36.6666H34.2864C35.6013 36.6666 36.6673 35.6006 36.6673 34.2856V27.9364C36.6673 26.6215 35.6013 25.5555 34.2864 25.5555H27.9372C26.6222 25.5555 25.5562 26.6215 25.5562 27.9364Z" fill="#46B839"/>
</svg>
