<?xml version="1.0" standalone="no"?><svg xmlns:xlink="http://www.w3.org/1999/xlink" xmlns="http://www.w3.org/2000/svg" viewBox="0 0 1000 583.3435837796936" preserveAspectRatio="xMaxYMax slice"><g transform="scale(1.863717520062919)"><rect x="0" y="0" width="536.5714285714286" height="313" fill="#ffffff"/><rect x="313" y="0" width="44.714285714285715" height="44.714285714285715" fill="#ffffff"/><path d="M 313 0 A 22.36 22.36 0 0 1  335.36 22.36 L 313 0 A 22.36 22.36 0 0 0 335.36 22.36" fill="#57c6e2"/><rect x="447.14285714285717" y="0" width="44.714285714285715" height="44.714285714285715" fill="#ffffff"/><path d="M 469.5 0 A 22.36 22.36 0 0 1  491.86 22.36 L 469.5 0 A 22.36 22.36 0 0 0 491.86 22.36" fill="#3dbddd"/><path d="M 0 44.71 A 44.71 44.71 0 0 1  44.71 89.42 L 0 44.71 A 44.71 44.71 0 0 0 44.71 89.42" fill="#ebf8fc"/><path d="M 89.43 89.42 A 44.71 44.71 0 0 1  134.14000000000001 44.71 L 89.43 89.42 A 44.71 44.71 0 0 0 134.14000000000001 44.71" fill="#ace3f0"/><path d="M 134.14 44.71 A 44.71 44.71 0 0 1  178.85 89.42 L 134.14 44.71 A 44.71 44.71 0 0 0 178.85 89.42" fill="#6bcde5"/><path d="M 268.29 89.42 A 44.71 44.71 0 0 1  313 44.71 L 268.29 89.42 A 44.71 44.71 0 0 0 313 44.71" fill="#d6f1f8"/><path d="M 491.86 44.71 A 44.71 44.71 0 0 1  536.57 89.42 L 491.86 44.71 A 44.71 44.71 0 0 0 536.57 89.42" fill="#8bd8eb"/><rect x="44.714285714285715" y="89.42857142857143" width="44.714285714285715" height="44.714285714285715" fill="#ffffff"/><path d="M 44.71 111.79 A 22.36 22.36 0 0 1  67.07 89.43 L 44.71 111.79 A 22.36 22.36 0 0 0 67.07 89.43" fill="#82d5e9"/><path d="M 44.71 111.79 A 22.36 22.36 0 0 1  67.07 134.15 L 44.71 111.79 A 22.36 22.36 0 0 0 67.07 134.15" fill="#3ebddd"/><rect x="89.42857142857143" y="89.42857142857143" width="44.714285714285715" height="44.714285714285715" fill="#ffffff"/><rect x="313" y="89.42857142857143" width="44.714285714285715" height="44.714285714285715" fill="#ffffff"/><path d="M 335.36 89.43 A 22.36 22.36 0 0 1  357.72 111.79 L 335.36 89.43 A 22.36 22.36 0 0 0 357.72 111.79" fill="#94dbec"/><path d="M 44.71 178.85 A 44.71 44.71 0 0 1  89.42 134.14 L 44.71 178.85 A 44.71 44.71 0 0 0 89.42 134.14" fill="#4dc3e0"/><rect x="89.42857142857143" y="134.14285714285714" width="44.714285714285715" height="44.714285714285715" fill="#ffffff"/><path d="M 134.14 134.14 A 44.71 44.71 0 0 1  178.85 178.85 L 134.14 134.14 A 44.71 44.71 0 0 0 178.85 178.85" fill="#37bbdc"/><rect x="313" y="134.14285714285714" width="44.714285714285715" height="44.714285714285715" fill="#ffffff"/><path d="M 402.43 178.85 A 44.71 44.71 0 0 1  447.14 134.14 L 402.43 178.85 A 44.71 44.71 0 0 0 447.14 134.14" fill="#55c5e1"/><rect x="447.14285714285717" y="134.14285714285714" width="44.714285714285715" height="44.714285714285715" fill="#ffffff"/><path d="M 89.43 178.86 A 44.71 44.71 0 0 1  134.14000000000001 223.57000000000002 L 89.43 178.86 A 44.71 44.71 0 0 0 134.14000000000001 223.57000000000002" fill="#42bfde"/><path d="M 178.86 223.57000000000002 A 44.71 44.71 0 0 1  223.57000000000002 178.86 L 178.86 223.57000000000002 A 44.71 44.71 0 0 0 223.57000000000002 178.86" fill="#74d0e7"/><rect x="268.2857142857143" y="178.85714285714286" width="44.714285714285715" height="44.714285714285715" fill="#ffffff"/><path d="M 290.64 223.57 A 22.36 22.36 0 0 1  313 201.21 L 290.64 223.57 A 22.36 22.36 0 0 0 313 201.21" fill="#77d1e7"/><rect x="447.14285714285717" y="178.85714285714286" width="44.714285714285715" height="44.714285714285715" fill="#ffffff"/><path d="M 447.14 178.86 A 22.36 22.36 0 0 1  469.5 201.22000000000003 L 447.14 178.86 A 22.36 22.36 0 0 0 469.5 201.22000000000003" fill="#47c0df"/><path d="M 447.14 201.21 A 22.36 22.36 0 0 1  469.5 223.57 L 447.14 201.21 A 22.36 22.36 0 0 0 469.5 223.57" fill="#2cb7da"/><path d="M 469.5 223.57 A 22.36 22.36 0 0 1  491.86 201.21 L 469.5 223.57 A 22.36 22.36 0 0 0 491.86 201.21" fill="#92daec"/><path d="M 0 268.28 A 44.71 44.71 0 0 1  44.71 223.57 L 0 268.28 A 44.71 44.71 0 0 0 44.71 223.57" fill="#afe4f1"/><rect x="268.2857142857143" y="223.57142857142858" width="44.714285714285715" height="44.714285714285715" fill="#ffffff"/><path d="M 268.29 245.93 A 22.36 22.36 0 0 1  290.65000000000003 268.29 L 268.29 245.93 A 22.36 22.36 0 0 0 290.65000000000003 268.29" fill="#fcfeff"/><path d="M 357.71 223.57 A 44.71 44.71 0 0 1  402.41999999999996 268.28 L 357.71 223.57 A 44.71 44.71 0 0 0 402.41999999999996 268.28" fill="#7bd2e8"/><path d="M 491.86 223.57 A 44.71 44.71 0 0 1  536.57 268.28 L 491.86 223.57 A 44.71 44.71 0 0 0 536.57 268.28" fill="#b5e6f2"/><path d="M 178.86 268.29 A 44.71 44.71 0 0 1  223.57000000000002 313 L 178.86 268.29 A 44.71 44.71 0 0 0 223.57000000000002 313" fill="#90d9ec"/><rect x="223.57142857142858" y="268.2857142857143" width="44.714285714285715" height="44.714285714285715" fill="#ffffff"/><path d="M 245.93 268.29 A 22.36 22.36 0 0 1  268.29 290.65000000000003 L 245.93 268.29 A 22.36 22.36 0 0 0 268.29 290.65000000000003" fill="#a6e1f0"/></g></svg>