<?xml version="1.0" standalone="no"?><svg xmlns:xlink="http://www.w3.org/1999/xlink" xmlns="http://www.w3.org/2000/svg" viewBox="0 0 1000 583.3435837796936" preserveAspectRatio="xMaxYMax slice"><g transform="scale(1.863717520062919)"><rect x="0" y="0" width="536.5714285714286" height="313" fill="#ffffff"/><path d="M 89.43 44.71 A 44.71 44.71 0 0 1  134.14000000000001 89.42 L 89.43 44.71 A 44.71 44.71 0 0 0 134.14000000000001 89.42" fill="#86d6ea"/><rect x="313" y="44.714285714285715" width="44.714285714285715" height="44.714285714285715" fill="#ffffff"/><path d="M 335.36 67.07 A 22.36 22.36 0 0 1  357.72 44.71 L 335.36 67.07 A 22.36 22.36 0 0 0 357.72 44.71" fill="#ceeef6"/><path d="M 335.36 67.07 A 22.36 22.36 0 0 1  357.72 89.42999999999999 L 335.36 67.07 A 22.36 22.36 0 0 0 357.72 89.42999999999999" fill="#2cb7da"/><rect x="402.42857142857144" y="44.714285714285715" width="44.714285714285715" height="44.714285714285715" fill="#ffffff"/><path d="M 424.79 44.71 A 22.36 22.36 0 0 1  447.15000000000003 67.07 L 424.79 44.71 A 22.36 22.36 0 0 0 447.15000000000003 67.07" fill="#ebf8fc"/><path d="M 447.14 89.42 A 44.71 44.71 0 0 1  491.84999999999997 44.71 L 447.14 89.42 A 44.71 44.71 0 0 0 491.84999999999997 44.71" fill="#edfbf0"/><path d="M 491.86 89.42 A 44.71 44.71 0 0 1  536.57 44.71 L 491.86 89.42 A 44.71 44.71 0 0 0 536.57 44.71" fill="#bdf1cb"/><rect x="0" y="89.42857142857143" width="44.714285714285715" height="44.714285714285715" fill="#ffffff"/><path d="M 0 111.79 A 22.36 22.36 0 0 1  22.36 89.43 L 0 111.79 A 22.36 22.36 0 0 0 22.36 89.43" fill="#f1fcf4"/><path d="M 22.36 89.43 A 22.36 22.36 0 0 1  44.72 111.79 L 22.36 89.43 A 22.36 22.36 0 0 0 44.72 111.79" fill="#8cd8eb"/><path d="M 22.36 111.79 A 22.36 22.36 0 0 1  44.72 134.15 L 22.36 111.79 A 22.36 22.36 0 0 0 44.72 134.15" fill="#b6e6f2"/><path d="M 223.57 134.14000000000001 A 44.71 44.71 0 0 1  268.28 89.43 L 223.57 134.14000000000001 A 44.71 44.71 0 0 0 268.28 89.43" fill="#dff8e6"/><rect x="268.2857142857143" y="89.42857142857143" width="44.714285714285715" height="44.714285714285715" fill="#ffffff"/><path d="M 268.29 111.79 A 22.36 22.36 0 0 1  290.65000000000003 134.15 L 268.29 111.79 A 22.36 22.36 0 0 0 290.65000000000003 134.15" fill="#67cce5"/><path d="M 447.14 134.14000000000001 A 44.71 44.71 0 0 1  491.84999999999997 89.43 L 447.14 134.14000000000001 A 44.71 44.71 0 0 0 491.84999999999997 89.43" fill="#d7f1f8"/><rect x="491.8571428571429" y="89.42857142857143" width="44.714285714285715" height="44.714285714285715" fill="#ffffff"/><path d="M 514.21 111.79 A 22.36 22.36 0 0 1  536.57 89.43 L 514.21 111.79 A 22.36 22.36 0 0 0 536.57 89.43" fill="#c6ecf5"/><path d="M 491.86 111.79 A 22.36 22.36 0 0 1  514.22 134.15 L 491.86 111.79 A 22.36 22.36 0 0 0 514.22 134.15" fill="#2cb7da"/><path d="M 514.21 111.79 A 22.36 22.36 0 0 1  536.57 134.15 L 514.21 111.79 A 22.36 22.36 0 0 0 536.57 134.15" fill="#41bfde"/><rect x="44.714285714285715" y="134.14285714285714" width="44.714285714285715" height="44.714285714285715" fill="#ffffff"/><path d="M 44.71 156.5 A 22.36 22.36 0 0 1  67.07 134.14 L 44.71 156.5 A 22.36 22.36 0 0 0 67.07 134.14" fill="#4fc3e0"/><path d="M 67.07 156.5 A 22.36 22.36 0 0 1  89.42999999999999 178.86 L 67.07 156.5 A 22.36 22.36 0 0 0 89.42999999999999 178.86" fill="#f1fcf4"/><rect x="89.42857142857143" y="134.14285714285714" width="44.714285714285715" height="44.714285714285715" fill="#ffffff"/><path d="M 111.79 156.5 A 22.36 22.36 0 0 1  134.15 134.14 L 111.79 156.5 A 22.36 22.36 0 0 0 134.15 134.14" fill="#a3ebb6"/><path d="M 89.43 178.86 A 22.36 22.36 0 0 1  111.79 156.5 L 89.43 178.86 A 22.36 22.36 0 0 0 111.79 156.5" fill="#65cbe4"/><path d="M 111.79 178.86 A 22.36 22.36 0 0 1  134.15 156.5 L 111.79 178.86 A 22.36 22.36 0 0 0 134.15 156.5" fill="#42d76a"/><path d="M 357.71 134.14 A 44.71 44.71 0 0 1  402.41999999999996 178.85 L 357.71 134.14 A 44.71 44.71 0 0 0 402.41999999999996 178.85" fill="#c0e9f4"/><path d="M 0 223.57000000000002 A 44.71 44.71 0 0 1  44.71 178.86 L 0 223.57000000000002 A 44.71 44.71 0 0 0 44.71 178.86" fill="#e0f8e6"/><path d="M 89.43 178.86 A 44.71 44.71 0 0 1  134.14000000000001 223.57000000000002 L 89.43 178.86 A 44.71 44.71 0 0 0 134.14000000000001 223.57000000000002" fill="#91e8a8"/><rect x="134.14285714285714" y="178.85714285714286" width="44.714285714285715" height="44.714285714285715" fill="#ffffff"/><path d="M 156.5 178.86 A 22.36 22.36 0 0 1  178.86 201.22000000000003 L 156.5 178.86 A 22.36 22.36 0 0 0 178.86 201.22000000000003" fill="#89d7ea"/><path d="M 156.5 223.57 A 22.36 22.36 0 0 1  178.86 201.21 L 156.5 223.57 A 22.36 22.36 0 0 0 178.86 201.21" fill="#b0eec0"/><path d="M 223.57 223.57000000000002 A 44.71 44.71 0 0 1  268.28 178.86 L 223.57 223.57000000000002 A 44.71 44.71 0 0 0 268.28 178.86" fill="#75e192"/><rect x="268.2857142857143" y="178.85714285714286" width="44.714285714285715" height="44.714285714285715" fill="#ffffff"/><path d="M 290.64 178.86 A 22.36 22.36 0 0 1  313 201.22000000000003 L 290.64 178.86 A 22.36 22.36 0 0 0 313 201.22000000000003" fill="#7ae396"/><path d="M 268.29 201.21 A 22.36 22.36 0 0 1  290.65000000000003 223.57 L 268.29 201.21 A 22.36 22.36 0 0 0 290.65000000000003 223.57" fill="#76e292"/><path d="M 290.64 223.57 A 22.36 22.36 0 0 1  313 201.21 L 290.64 223.57 A 22.36 22.36 0 0 0 313 201.21" fill="#80e49b"/><path d="M 313 178.86 A 44.71 44.71 0 0 1  357.71 223.57000000000002 L 313 178.86 A 44.71 44.71 0 0 0 357.71 223.57000000000002" fill="#abe3f0"/><rect x="0" y="223.57142857142858" width="44.714285714285715" height="44.714285714285715" fill="#ffffff"/><path d="M 0 223.57 A 22.36 22.36 0 0 1  22.36 245.93 L 0 223.57 A 22.36 22.36 0 0 0 22.36 245.93" fill="#ecfbf0"/><path d="M 0 268.29 A 22.36 22.36 0 0 1  22.36 245.93 L 0 268.29 A 22.36 22.36 0 0 0 22.36 245.93" fill="#7bd2e8"/><path d="M 22.36 245.93 A 22.36 22.36 0 0 1  44.72 268.29 L 22.36 245.93 A 22.36 22.36 0 0 0 44.72 268.29" fill="#94e8aa"/><rect x="44.714285714285715" y="223.57142857142858" width="44.714285714285715" height="44.714285714285715" fill="#ffffff"/><path d="M 44.71 245.93 A 22.36 22.36 0 0 1  67.07 223.57 L 44.71 245.93 A 22.36 22.36 0 0 0 67.07 223.57" fill="#c9f3d4"/><path d="M 67.07 245.93 A 22.36 22.36 0 0 1  89.42999999999999 223.57 L 67.07 245.93 A 22.36 22.36 0 0 0 89.42999999999999 223.57" fill="#ddf3f9"/><path d="M 44.71 245.93 A 22.36 22.36 0 0 1  67.07 268.29 L 44.71 245.93 A 22.36 22.36 0 0 0 67.07 268.29" fill="#5fdd81"/><path d="M 67.07 268.29 A 22.36 22.36 0 0 1  89.42999999999999 245.93 L 67.07 268.29 A 22.36 22.36 0 0 0 89.42999999999999 245.93" fill="#3ed666"/><rect x="89.42857142857143" y="223.57142857142858" width="44.714285714285715" height="44.714285714285715" fill="#ffffff"/><path d="M 111.79 245.93 A 22.36 22.36 0 0 1  134.15 223.57 L 111.79 245.93 A 22.36 22.36 0 0 0 134.15 223.57" fill="#f1fcf4"/><path d="M 89.43 245.93 A 22.36 22.36 0 0 1  111.79 268.29 L 89.43 245.93 A 22.36 22.36 0 0 0 111.79 268.29" fill="#cef5d8"/><path d="M 111.79 245.93 A 22.36 22.36 0 0 1  134.15 268.29 L 111.79 245.93 A 22.36 22.36 0 0 0 134.15 268.29" fill="#7de398"/><path d="M 178.86 268.28 A 44.71 44.71 0 0 1  223.57000000000002 223.57 L 178.86 268.28 A 44.71 44.71 0 0 0 223.57000000000002 223.57" fill="#a1ebb4"/><path d="M 223.57 223.57 A 44.71 44.71 0 0 1  268.28 268.28 L 223.57 223.57 A 44.71 44.71 0 0 0 268.28 268.28" fill="#a2ebb5"/><path d="M 313 223.57 A 44.71 44.71 0 0 1  357.71 268.28 L 313 223.57 A 44.71 44.71 0 0 0 357.71 268.28" fill="#c2eaf4"/><rect x="402.42857142857144" y="223.57142857142858" width="44.714285714285715" height="44.714285714285715" fill="#ffffff"/><path d="M 402.43 245.93 A 22.36 22.36 0 0 1  424.79 223.57 L 402.43 245.93 A 22.36 22.36 0 0 0 424.79 223.57" fill="#f1fcf4"/><path d="M 424.79 223.57 A 22.36 22.36 0 0 1  447.15000000000003 245.93 L 424.79 223.57 A 22.36 22.36 0 0 0 447.15000000000003 245.93" fill="#3bbddd"/><path d="M 402.43 268.29 A 22.36 22.36 0 0 1  424.79 245.93 L 402.43 268.29 A 22.36 22.36 0 0 0 424.79 245.93" fill="#5cc8e2"/><path d="M 424.79 245.93 A 22.36 22.36 0 0 1  447.15000000000003 268.29 L 424.79 245.93 A 22.36 22.36 0 0 0 447.15000000000003 268.29" fill="#a9edbb"/><path d="M 491.86 223.57 A 44.71 44.71 0 0 1  536.57 268.28 L 491.86 223.57 A 44.71 44.71 0 0 0 536.57 268.28" fill="#34badc"/><rect x="0" y="268.2857142857143" width="44.714285714285715" height="44.714285714285715" fill="#ffffff"/><path d="M 0 290.65000000000003 A 22.36 22.36 0 0 1  22.36 268.29 L 0 290.65000000000003 A 22.36 22.36 0 0 0 22.36 268.29" fill="#f6fdf8"/><path d="M 22.36 268.29 A 22.36 22.36 0 0 1  44.72 290.65000000000003 L 22.36 268.29 A 22.36 22.36 0 0 0 44.72 290.65000000000003" fill="#90d9ec"/><path d="M 0 290.64 A 22.36 22.36 0 0 1  22.36 313 L 0 290.64 A 22.36 22.36 0 0 0 22.36 313" fill="#fdfffd"/><path d="M 22.36 313 A 22.36 22.36 0 0 1  44.72 290.64 L 22.36 313 A 22.36 22.36 0 0 0 44.72 290.64" fill="#66cbe4"/><path d="M 44.71 268.29 A 44.71 44.71 0 0 1  89.42 313 L 44.71 268.29 A 44.71 44.71 0 0 0 89.42 313" fill="#e0f8e7"/><rect x="89.42857142857143" y="268.2857142857143" width="44.714285714285715" height="44.714285714285715" fill="#ffffff"/><path d="M 89.43 268.29 A 22.36 22.36 0 0 1  111.79 290.65000000000003 L 89.43 268.29 A 22.36 22.36 0 0 0 111.79 290.65000000000003" fill="#4ad870"/><path d="M 111.79 268.29 A 22.36 22.36 0 0 1  134.15 290.65000000000003 L 111.79 268.29 A 22.36 22.36 0 0 0 134.15 290.65000000000003" fill="#aee4f1"/><path d="M 89.43 290.64 A 22.36 22.36 0 0 1  111.79 313 L 89.43 290.64 A 22.36 22.36 0 0 0 111.79 313" fill="#b1eec2"/><path d="M 111.79 313 A 22.36 22.36 0 0 1  134.15 290.64 L 111.79 313 A 22.36 22.36 0 0 0 134.15 290.64" fill="#65de85"/><path d="M 134.14 313 A 44.71 44.71 0 0 1  178.85 268.29 L 134.14 313 A 44.71 44.71 0 0 0 178.85 268.29" fill="#f5fbfd"/><path d="M 178.86 268.29 A 44.71 44.71 0 0 1  223.57000000000002 313 L 178.86 268.29 A 44.71 44.71 0 0 0 223.57000000000002 313" fill="#9edeee"/><rect x="223.57142857142858" y="268.2857142857143" width="44.714285714285715" height="44.714285714285715" fill="#ffffff"/><path d="M 223.57 290.65000000000003 A 22.36 22.36 0 0 1  245.93 268.29 L 223.57 290.65000000000003 A 22.36 22.36 0 0 0 245.93 268.29" fill="#47c1df"/><path d="M 245.93 290.65000000000003 A 22.36 22.36 0 0 1  268.29 268.29 L 245.93 290.65000000000003 A 22.36 22.36 0 0 0 268.29 268.29" fill="#cbf4d6"/><path d="M 223.57 313 A 22.36 22.36 0 0 1  245.93 290.64 L 223.57 313 A 22.36 22.36 0 0 0 245.93 290.64" fill="#2cb7da"/><path d="M 245.93 313 A 22.36 22.36 0 0 1  268.29 290.64 L 245.93 313 A 22.36 22.36 0 0 0 268.29 290.64" fill="#46c0df"/><rect x="268.2857142857143" y="268.2857142857143" width="44.714285714285715" height="44.714285714285715" fill="#ffffff"/><path d="M 268.29 290.65000000000003 A 22.36 22.36 0 0 1  290.65000000000003 268.29 L 268.29 290.65000000000003 A 22.36 22.36 0 0 0 290.65000000000003 268.29" fill="#3cd565"/><path d="M 290.64 290.65000000000003 A 22.36 22.36 0 0 1  313 268.29 L 290.64 290.65000000000003 A 22.36 22.36 0 0 0 313 268.29" fill="#d3f0f7"/><path d="M 268.29 313 A 22.36 22.36 0 0 1  290.65000000000003 290.64 L 268.29 313 A 22.36 22.36 0 0 0 290.65000000000003 290.64" fill="#6ccde5"/><path d="M 290.64 290.64 A 22.36 22.36 0 0 1  313 313 L 290.64 290.64 A 22.36 22.36 0 0 0 313 313" fill="#3cd565"/><path d="M 313 313 A 44.71 44.71 0 0 1  357.71 268.29 L 313 313 A 44.71 44.71 0 0 0 357.71 268.29" fill="#57c6e2"/><rect x="357.7142857142857" y="268.2857142857143" width="44.714285714285715" height="44.714285714285715" fill="#ffffff"/><path d="M 357.71 290.65000000000003 A 22.36 22.36 0 0 1  380.07 268.29 L 357.71 290.65000000000003 A 22.36 22.36 0 0 0 380.07 268.29" fill="#eff9fc"/><path d="M 380.07 290.65000000000003 A 22.36 22.36 0 0 1  402.43 268.29 L 380.07 290.65000000000003 A 22.36 22.36 0 0 0 402.43 268.29" fill="#65cbe4"/><path d="M 357.71 313 A 22.36 22.36 0 0 1  380.07 290.64 L 357.71 313 A 22.36 22.36 0 0 0 380.07 290.64" fill="#55c5e1"/><path d="M 380.07 290.64 A 22.36 22.36 0 0 1  402.43 313 L 380.07 290.64 A 22.36 22.36 0 0 0 402.43 313" fill="#55db79"/><rect x="402.42857142857144" y="268.2857142857143" width="44.714285714285715" height="44.714285714285715" fill="#ffffff"/><path d="M 402.43 268.29 A 22.36 22.36 0 0 1  424.79 290.65000000000003 L 402.43 268.29 A 22.36 22.36 0 0 0 424.79 290.65000000000003" fill="#d9f7e1"/><path d="M 424.79 290.65000000000003 A 22.36 22.36 0 0 1  447.15000000000003 268.29 L 424.79 290.65000000000003 A 22.36 22.36 0 0 0 447.15000000000003 268.29" fill="#e9faee"/><path d="M 402.43 313 A 22.36 22.36 0 0 1  424.79 290.64 L 402.43 313 A 22.36 22.36 0 0 0 424.79 290.64" fill="#8fe7a6"/><path d="M 424.79 290.64 A 22.36 22.36 0 0 1  447.15000000000003 313 L 424.79 290.64 A 22.36 22.36 0 0 0 447.15000000000003 313" fill="#a9e2f0"/><rect x="447.14285714285717" y="268.2857142857143" width="44.714285714285715" height="44.714285714285715" fill="#ffffff"/><path d="M 447.14 290.65000000000003 A 22.36 22.36 0 0 1  469.5 268.29 L 447.14 290.65000000000003 A 22.36 22.36 0 0 0 469.5 268.29" fill="#a8ecba"/><path d="M 469.5 268.29 A 22.36 22.36 0 0 1  491.86 290.65000000000003 L 469.5 268.29 A 22.36 22.36 0 0 0 491.86 290.65000000000003" fill="#55c5e1"/><path d="M 447.14 313 A 22.36 22.36 0 0 1  469.5 290.64 L 447.14 313 A 22.36 22.36 0 0 0 469.5 290.64" fill="#88e6a1"/><path d="M 469.5 290.64 A 22.36 22.36 0 0 1  491.86 313 L 469.5 290.64 A 22.36 22.36 0 0 0 491.86 313" fill="#d9f7e1"/><path d="M 491.86 313 A 44.71 44.71 0 0 1  536.57 268.29 L 491.86 313 A 44.71 44.71 0 0 0 536.57 268.29" fill="#fdfeff"/></g></svg>